<svg width="25" height="25" viewBox="0 0 25 25" fill="none" xmlns="http://www.w3.org/2000/svg">
<circle cx="12.5" cy="12.5" r="12.5" fill="white"/>
<path fill-rule="evenodd" clip-rule="evenodd" d="M15.2613 19.4447V14.2813H16.9947L17.254 12.2693H15.2607V10.9847C15.2607 10.402 15.4227 10.0047 16.2587 10.0047H17.324V8.20466C16.8081 8.14976 16.2895 8.12305 15.7707 8.12466C14.2347 8.12466 13.1833 9.06266 13.1833 10.7847V12.2693H11.4447V14.2813H13.1827V19.4447H6.84733C6.44066 19.4447 6.11133 19.1153 6.11133 18.7087V6.84733C6.11133 6.44066 6.44066 6.11133 6.84733 6.11133H18.7087C19.1153 6.11133 19.4447 6.44066 19.4447 6.84733V18.7087C19.4447 19.1153 19.1153 19.4447 18.7087 19.4447H15.2613Z" fill="#125332"/>
</svg>
