<svg width="25" height="25" viewBox="0 0 25 25" fill="none" xmlns="http://www.w3.org/2000/svg">
<circle cx="12.5" cy="12.5" r="12.5" fill="white"/>
<path d="M12.7784 10.5771C12.1784 10.5771 11.6451 10.7771 11.1784 11.2438C10.7117 11.7105 10.5117 12.2438 10.5117 12.8438C10.5117 13.4438 10.7117 13.9771 11.1784 14.4438C11.6451 14.9105 12.1784 15.1105 12.7784 15.1105C13.3784 15.1105 13.9117 14.9105 14.3784 14.4438C14.8451 13.9771 15.0451 13.4438 15.0451 12.8438C15.0451 12.2438 14.8451 11.7105 14.3784 11.2438C13.9117 10.7771 13.3784 10.5771 12.7784 10.5771Z" fill="#135434"/>
<path fill-rule="evenodd" clip-rule="evenodd" d="M19.378 10.0447C19.3113 8.84466 18.978 7.91133 18.3113 7.24466C17.6447 6.57799 16.7113 6.24466 15.5113 6.17799C15.3014 6.17799 15.0296 6.16767 14.6999 6.15515C14.1918 6.13585 13.5462 6.11133 12.778 6.11133C11.5113 6.11133 10.5113 6.11133 10.0447 6.17799C8.84466 6.31133 7.91133 6.64466 7.24466 7.31133C6.57799 7.978 6.24466 8.91133 6.17799 10.1113C6.17799 10.2876 6.16848 10.5304 6.15665 10.8327C6.13714 11.3306 6.11133 11.9898 6.11133 12.778C6.11133 14.0447 6.11133 15.0447 6.17799 15.5113C6.24466 16.7113 6.57799 17.6447 7.24466 18.3113C7.91133 18.978 8.84466 19.3113 10.0447 19.378C10.5113 19.4447 11.4447 19.4447 12.778 19.4447C14.1113 19.4447 15.0447 19.4447 15.5113 19.378C16.7113 19.3113 17.6447 18.978 18.3113 18.3113C18.978 17.6447 19.3113 16.7113 19.378 15.5113C19.378 15.3047 19.388 15.0481 19.4003 14.7336L19.4003 14.7336C19.4196 14.2364 19.4447 13.5948 19.4447 12.778C19.4447 11.9612 19.4196 11.3196 19.4003 10.8224L19.4003 10.8224C19.388 10.5079 19.378 10.2513 19.378 10.0447ZM15.1779 15.1779C14.5113 15.8446 13.7113 16.1779 12.7779 16.1779C11.8446 16.1779 11.0446 15.8446 10.3779 15.1779C9.71126 14.5113 9.37793 13.7113 9.37793 12.7779C9.37793 11.8446 9.71126 11.0446 10.3779 10.3779C11.0446 9.71126 11.8446 9.37793 12.7779 9.37793C13.7113 9.37793 14.5113 9.71126 15.1779 10.3779C15.8446 11.0446 16.1779 11.8446 16.1779 12.7779C16.1779 13.7779 15.8446 14.5779 15.1779 15.1779ZM16.3115 9.9779C16.5115 9.9779 16.7115 9.91123 16.8448 9.7779C17.0448 9.64456 17.1115 9.44456 17.0448 9.24456C17.0448 9.04456 16.9781 8.84456 16.8448 8.71123C16.7115 8.5779 16.5115 8.51123 16.3115 8.51123C16.1115 8.51123 15.9115 8.5779 15.7781 8.71123C15.6448 8.84456 15.5781 9.04456 15.5781 9.24456C15.5781 9.44456 15.6448 9.64456 15.7781 9.7779C15.9115 9.91123 16.1115 9.9779 16.3115 9.9779Z" fill="#135434"/>
</svg>
