<svg width="25" height="25" viewBox="0 0 25 25" fill="none" xmlns="http://www.w3.org/2000/svg">
<circle cx="12.5" cy="12.5" r="12.5" fill="white"/>
<path fill-rule="evenodd" clip-rule="evenodd" d="M7.2115 9.44466C8.24483 9.44466 8.88802 8.70388 8.88802 7.77815C8.86877 6.83155 8.24487 6.11133 7.23111 6.11133C6.21752 6.11133 5.55469 6.83156 5.55469 7.77815C5.55469 8.70392 6.19772 9.44466 7.19216 9.44466H7.21141H7.2115ZM8.88802 19.4446V10.5557H5.55469V19.4446H8.88802ZM13.093 19.4444H9.99902L9.99909 19.4443C9.99909 19.4443 10.0397 11.0823 9.99909 10.2165H13.0931V11.523C13.5042 10.8943 14.2402 10 15.8814 10C17.9171 10 19.4435 11.3188 19.4435 14.1532V19.4444H16.3497V14.5077C16.3497 13.2672 15.9018 12.421 14.7822 12.421C13.9275 12.421 13.4185 12.9917 13.1948 13.5427C13.1131 13.7399 13.093 14.0154 13.093 14.2912V19.4444Z" fill="#125332"/>
</svg>
