<svg width="51" height="50" viewBox="0 0 51 50" fill="none" xmlns="http://www.w3.org/2000/svg">
<g clip-path="url(#clip0_2470_1794)">
<g filter="url(#filter0_f_2470_1794)">
<path d="M1.23438 48.8329L4.5953 36.655C2.52879 33.0916 1.42735 29.0438 1.43871 24.9056C1.43871 11.9383 12.0667 1.39551 25.1249 1.39551C31.4608 1.39551 37.4107 3.84239 41.8733 8.285C46.347 12.7276 48.8111 18.6362 48.7997 24.9169C48.7997 37.884 38.1715 48.427 25.1135 48.427H25.1022C21.1394 48.427 17.2446 47.4348 13.7814 45.5628L1.23438 48.8329ZM14.3719 41.3006L15.0872 41.7292C18.1076 43.5107 21.5708 44.4465 25.1022 44.4578H25.1135C35.9574 44.4578 44.7913 35.6965 44.7913 24.9169C44.7913 19.6961 42.7475 14.7912 39.0345 11.0926C35.3215 7.39415 30.3707 5.36457 25.1135 5.36457C14.2582 5.36457 5.42422 14.1259 5.42422 24.9054C5.42422 28.5928 6.45748 32.1897 8.43329 35.3019L8.89878 36.0461L6.91181 43.2513L14.3719 41.3006Z" fill="#2C2D2C" fill-opacity="0.15"/>
</g>
<path d="M2.30859 47.5756L5.51573 35.9609C3.53812 32.5541 2.4978 28.6906 2.49922 24.7583C2.49922 12.3974 12.6367 2.3418 25.0726 2.3418C31.117 2.3418 36.7801 4.68032 41.0413 8.91184C45.3024 13.1435 47.6464 18.7784 47.6464 24.7694C47.6464 37.1301 37.5089 47.1858 25.0728 47.1858H25.0616C21.2824 47.1858 17.5706 46.2393 14.2737 44.4576L2.30859 47.5758V47.5756Z" fill="url(#paint0_linear_2470_1794)"/>
<path d="M1.49023 48.3885L4.80943 36.3618C2.76858 32.843 1.68066 28.8451 1.69203 24.7583C1.69203 11.9521 12.1882 1.54004 25.0843 1.54004C31.3415 1.54004 37.2174 3.95638 41.6247 8.34393C46.0428 12.7315 48.4762 18.5667 48.4651 24.7694C48.4651 37.5756 37.9689 47.9877 25.0728 47.9877H25.0618C21.1557 47.9862 17.3121 47.0138 13.8815 45.1591L1.49023 48.3887V48.3885ZM14.4645 40.9498L15.171 41.3729C18.154 43.1325 21.5741 44.0568 25.0618 44.0679H25.073C35.7821 44.0679 44.5066 35.4153 44.5066 24.7694C44.5066 19.6136 42.4881 14.7694 38.8211 11.1169C35.1542 7.46436 30.2649 5.45988 25.073 5.45988C14.3525 5.45988 5.62816 14.1124 5.62816 24.7583C5.62816 28.3998 6.64849 31.9521 8.59981 35.0255L9.05962 35.7605L7.09714 42.8762L14.4645 40.9498Z" fill="white"/>
<path d="M19.2305 15.0369C18.793 14.068 18.3332 14.0456 17.9184 14.0345C17.5821 14.0234 17.1896 14.0234 16.797 14.0234C16.4046 14.0234 15.7765 14.1682 15.2383 14.7472C14.6999 15.3264 13.1973 16.7295 13.1973 19.5915C13.1973 22.4421 15.2943 25.2038 15.5859 25.5935C15.8774 25.9834 19.6341 32.0301 25.5662 34.3575C30.5003 36.2952 31.5097 35.9053 32.5749 35.8052C33.6514 35.705 36.0289 34.402 36.5222 33.0435C37.0043 31.6849 37.0043 30.5267 36.8586 30.2818C36.7128 30.0367 36.3204 29.8921 35.7372 29.6024C35.1541 29.3129 32.2834 27.9098 31.7452 27.7094C31.2068 27.509 30.8144 27.4199 30.4331 27.9989C30.0405 28.5779 28.9193 29.8808 28.5827 30.2707C28.2463 30.6604 27.8988 30.705 27.3155 30.4155C26.7325 30.126 24.8486 29.5133 22.6171 27.5312C20.8789 25.9944 19.7015 24.0902 19.3649 23.5112C19.0285 22.9322 19.3314 22.6201 19.6229 22.3308C19.8807 22.0746 20.2059 21.6515 20.4977 21.3174C20.7892 20.9834 20.8901 20.7384 21.0807 20.3485C21.2713 19.9588 21.1816 19.6248 21.0358 19.3353C20.8901 19.0456 19.7463 16.1837 19.2305 15.0369Z" fill="white"/>
</g>
<defs>
<filter id="filter0_f_2470_1794" x="-4.76562" y="-4.60449" width="59.5645" height="59.4375" filterUnits="userSpaceOnUse" color-interpolation-filters="sRGB">
<feFlood flood-opacity="0" result="BackgroundImageFix"/>
<feBlend mode="normal" in="SourceGraphic" in2="BackgroundImageFix" result="shape"/>
<feGaussianBlur stdDeviation="3" result="effect1_foregroundBlur_2470_1794"/>
</filter>
<linearGradient id="paint0_linear_2470_1794" x1="24.9766" y1="47.5727" x2="24.9766" y2="2.33908" gradientUnits="userSpaceOnUse">
<stop stop-color="#20B038"/>
<stop offset="1" stop-color="#60D66A"/>
</linearGradient>
<clipPath id="clip0_2470_1794">
<rect width="50.1543" height="50" fill="white"/>
</clipPath>
</defs>
</svg>
