<svg width="25" height="25" viewBox="0 0 25 25" fill="none" xmlns="http://www.w3.org/2000/svg">
<circle cx="12.5" cy="12.5" r="12.5" fill="white"/>
<path d="M22.2134 9.70893C22.2109 9.39788 22.1733 9.08806 22.1012 8.78524C21.7525 7.30916 20.351 6.10046 18.5391 6.1114C14.6972 6.13389 10.8548 6.11809 7.01292 6.1193C6.82073 6.11398 6.62839 6.12272 6.43751 6.14543C4.5979 6.42011 3.33864 7.8652 3.33495 9.70954C3.33289 11.7603 3.33413 13.8112 3.33864 15.8624C3.33953 16.1659 3.37592 16.4683 3.44707 16.7636C3.84567 18.3758 5.24417 19.4374 6.97842 19.4411C8.90735 19.4478 10.8363 19.4411 12.7652 19.4411C14.6627 19.4411 16.5607 19.4411 18.459 19.4411C18.6818 19.4484 18.9049 19.4387 19.1262 19.4119C20.9744 19.1239 22.214 17.6909 22.2177 15.8387C22.2218 13.7956 22.2204 11.7524 22.2134 9.70893ZM10.2935 15.6521V9.91129L15.2837 12.7863L10.2935 15.6521Z" fill="#135434"/>
<path d="M22.2134 9.70893C22.2109 9.39788 22.1733 9.08806 22.1012 8.78524C21.7525 7.30916 20.351 6.10046 18.5391 6.1114C14.6972 6.13389 10.8548 6.11809 7.01292 6.1193C6.82073 6.11398 6.62839 6.12272 6.43751 6.14543C4.5979 6.42011 3.33864 7.8652 3.33495 9.70954C3.33289 11.7603 3.33413 13.8112 3.33864 15.8624C3.33953 16.1659 3.37592 16.4683 3.44707 16.7636C3.84567 18.3758 5.24417 19.4374 6.97842 19.4411C8.90735 19.4478 10.8363 19.4411 12.7652 19.4411C14.6627 19.4411 16.5607 19.4411 18.459 19.4411C18.6818 19.4484 18.9049 19.4387 19.1262 19.4119C20.9744 19.1239 22.214 17.6909 22.2177 15.8387C22.2218 13.7956 22.2204 11.7524 22.2134 9.70893ZM10.2935 15.6521V9.91129L15.2837 12.7863L10.2935 15.6521Z" fill="#135434"/>
</svg>
